<svg width="19" height="18" viewBox="0 0 19 18" fill="none" xmlns="http://www.w3.org/2000/svg">
<g clip-path="url(#clip0_468_6831)">
<rect x="0.216309" width="18" height="18" rx="9" fill="white"/>
<path d="M6.21631 9C6.21631 9.19891 6.29533 9.38968 6.43598 9.53033C6.57663 9.67098 6.7674 9.75 6.96631 9.75C7.16522 9.75 7.35599 9.67098 7.49664 9.53033C7.63729 9.38968 7.71631 9.19891 7.71631 9C7.71631 8.80109 7.63729 8.61032 7.49664 8.46967C7.35599 8.32902 7.16522 8.25 6.96631 8.25C6.7674 8.25 6.57663 8.32902 6.43598 8.46967C6.29533 8.61032 6.21631 8.80109 6.21631 9Z" stroke="white" stroke-width="1.5" stroke-linecap="round" stroke-linejoin="round"/>
<path d="M10.7163 9C10.7163 9.19891 10.7953 9.38968 10.936 9.53033C11.0766 9.67098 11.2674 9.75 11.4663 9.75C11.6652 9.75 11.856 9.67098 11.9966 9.53033C12.1373 9.38968 12.2163 9.19891 12.2163 9C12.2163 8.80109 12.1373 8.61032 11.9966 8.46967C11.856 8.32902 11.6652 8.25 11.4663 8.25C11.2674 8.25 11.0766 8.32902 10.936 8.46967C10.7953 8.61032 10.7163 8.80109 10.7163 9Z" stroke="white" stroke-width="1.5" stroke-linecap="round" stroke-linejoin="round"/>
<g clip-path="url(#clip1_468_6831)">
<path d="M10.9564 3.75L11.0282 3.7535C12.203 3.87833 13.0856 4.1455 13.925 4.72942C14.0252 4.79931 14.1009 4.89888 14.1414 5.01408C15.2358 8.1145 15.5257 10.8398 14.9879 12.1774C14.4028 13.347 13.4677 14.25 12.4247 14.25C11.8764 14.25 11.1081 13.319 10.8048 12.5181L10.7931 12.521C11.2819 12.4446 11.7789 12.3326 12.2934 12.1862C12.3671 12.1651 12.436 12.1297 12.496 12.0821C12.556 12.0344 12.606 11.9754 12.6433 11.9084C12.6805 11.8414 12.7041 11.7677 12.7129 11.6915C12.7216 11.6154 12.7153 11.5383 12.6942 11.4646C12.6731 11.3909 12.6377 11.3221 12.5901 11.262C12.5424 11.202 12.4834 11.152 12.4164 11.1148C12.3494 11.0776 12.2757 11.0539 12.1996 11.0452C12.1234 11.0364 12.0463 11.0428 11.9726 11.0638C10.0359 11.618 8.39677 11.618 6.4601 11.0638C6.31127 11.0213 6.15163 11.0396 6.01631 11.1148C5.88099 11.1899 5.78106 11.3158 5.73852 11.4646C5.69597 11.6134 5.71429 11.773 5.78945 11.9084C5.8646 12.0437 5.99044 12.1436 6.13927 12.1862C6.56218 12.3069 6.97402 12.4038 7.37943 12.4773L7.63843 12.5204C7.36018 13.3196 6.64968 14.25 6.10602 14.25C5.08927 14.25 4.19502 13.3429 3.61693 12.1243C3.12635 10.8375 3.40168 8.118 4.44177 5.02283C4.48009 4.90822 4.55306 4.80835 4.6506 4.737C5.4626 4.14433 6.28802 3.87658 7.40218 3.75408C7.50785 3.74251 7.61467 3.76003 7.71111 3.80475C7.80754 3.84947 7.88992 3.9197 7.94935 4.00783L7.9861 4.07025L8.36644 4.82158L8.45977 4.8105C8.97135 4.758 9.46194 4.758 9.97352 4.8105L10.0657 4.82158L10.4449 4.07083C10.4873 3.98671 10.5494 3.91412 10.626 3.85926C10.7026 3.8044 10.7914 3.76892 10.8847 3.75583L10.9564 3.75ZM7.46635 7.25C7.18755 7.24999 6.91797 7.34982 6.70642 7.5314C6.49487 7.71299 6.35534 7.96434 6.3131 8.23992L6.3026 8.32975L6.29968 8.41667L6.3026 8.50417C6.31963 8.73053 6.40232 8.94701 6.54054 9.12707C6.67877 9.30714 6.86652 9.44296 7.08079 9.51791C7.29506 9.59286 7.52655 9.60367 7.74687 9.54902C7.96719 9.49436 8.16679 9.37662 8.32119 9.21022C8.47559 9.04382 8.5781 8.83599 8.61615 8.6122C8.65419 8.38841 8.62612 8.15838 8.53538 7.95031C8.44464 7.74223 8.29517 7.56515 8.10529 7.44076C7.9154 7.31637 7.69335 7.25007 7.46635 7.25ZM10.9664 7.25C10.6876 7.24999 10.418 7.34982 10.2064 7.5314C9.99487 7.71299 9.85534 7.96434 9.8131 8.23992L9.8026 8.32975L9.79969 8.41667L9.8026 8.50417C9.81963 8.73053 9.90232 8.94701 10.0405 9.12707C10.1788 9.30714 10.3665 9.44296 10.5808 9.51791C10.7951 9.59286 11.0265 9.60367 11.2469 9.54902C11.4672 9.49436 11.6668 9.37662 11.8212 9.21022C11.9756 9.04382 12.0781 8.83599 12.1161 8.6122C12.1542 8.38841 12.1261 8.15838 12.0354 7.95031C11.9446 7.74223 11.7952 7.56515 11.6053 7.44076C11.4154 7.31637 11.1934 7.25007 10.9664 7.25Z" fill="black"/>
</g>
<path d="M5.46631 12.375C8.09131 13.125 10.3413 13.125 12.9663 12.375" stroke="black" stroke-width="1.5" stroke-linecap="round" stroke-linejoin="round"/>
</g>
<defs>
<clipPath id="clip0_468_6831">
<rect x="0.216309" width="18" height="18" rx="9" fill="white"/>
</clipPath>
<clipPath id="clip1_468_6831">
<rect width="14" height="14" fill="white" transform="translate(2.21631 2)"/>
</clipPath>
</defs>
</svg>
