<svg width="25" height="24" viewBox="0 0 25 24" fill="none" xmlns="http://www.w3.org/2000/svg">
<circle cx="12.7837" cy="12" r="12" fill="url(#paint0_linear_424_20539)"/>
<path d="M13.124 14.9347C12.8323 14.9347 12.4599 14.7953 11.353 14.2378C10.6903 13.9041 9.80229 13.4363 8.71428 12.8468C6.86825 11.8472 5.05391 10.8275 5.03589 10.8173L3.78369 10.1127L12.233 5.88853C12.4948 5.75701 12.7827 5.67675 13.0791 5.65269C13.3754 5.62864 13.6739 5.66129 13.9562 5.74864C15.0364 6.08827 17.0647 6.78304 18.5118 7.61663C20.0854 8.52325 20.297 9.61199 20.2831 10.1809C20.2603 11.1321 19.6024 12.0122 18.4792 12.5951C17.5782 13.0621 16.4562 13.6097 15.4779 14.058C13.7071 14.87 13.3977 14.9084 13.2492 14.9269C13.2077 14.932 13.1659 14.9347 13.124 14.9347ZM7.15604 10.1894C7.76173 10.5254 8.52592 10.947 9.30971 11.3726C11.9074 12.7838 12.825 13.2153 13.1448 13.3467C13.8077 13.1147 15.9082 12.1506 17.6676 11.2378C18.2605 10.9298 18.6067 10.5313 18.6163 10.1444C18.6261 9.74105 18.2685 9.3008 17.6357 8.9359C16.2811 8.15538 14.2389 7.47462 13.4239 7.21799C13.3582 7.1982 13.2887 7.19127 13.22 7.19763C13.1512 7.20398 13.0846 7.22349 13.0244 7.25492L7.15604 10.1894Z" fill="black"/>
<path d="M13.124 18.3533C12.8323 18.3533 12.4599 18.2139 11.353 17.6564C10.6903 17.3227 9.80229 16.8549 8.71428 16.2656C6.86825 15.2658 5.05391 14.2461 5.03589 14.2359L3.78369 13.5324L12.233 9.30649C12.4948 9.17498 12.7827 9.09472 13.0791 9.07066C13.3754 9.0466 13.6739 9.07926 13.9562 9.16661C15.0364 9.50624 17.0644 10.201 18.5118 11.0346C20.0854 11.9412 20.297 13.03 20.2831 13.5988C20.2603 14.55 19.6024 15.4301 18.4792 16.013C17.5782 16.48 16.4562 17.0277 15.4779 17.476C13.7071 18.2879 13.3977 18.3264 13.2492 18.3448C13.2077 18.3502 13.1659 18.3531 13.124 18.3533ZM7.15604 13.6082C7.76173 13.944 8.52592 14.3656 9.30971 14.7912C11.9074 16.2024 12.825 16.6339 13.1448 16.7653C13.8077 16.5335 15.9082 15.5702 17.6676 14.6575C18.2605 14.3494 18.6067 13.951 18.6163 13.564C18.6261 13.1607 18.2685 12.7205 17.6357 12.3554C16.2811 11.575 14.2389 10.8943 13.4239 10.6377C13.3582 10.6178 13.2887 10.6108 13.2199 10.6172C13.1512 10.6236 13.0846 10.6432 13.0244 10.6748L7.15604 13.6082Z" fill="black"/>
<defs>
<linearGradient id="paint0_linear_424_20539" x1="0.349021" y1="-6.92887e-06" x2="21.8453" y2="0.37418" gradientUnits="userSpaceOnUse">
<stop stop-color="#FFB703"/>
<stop offset="0.35783" stop-color="#FFD877" stop-opacity="0.99"/>
<stop offset="1" stop-color="#FFBF1E" stop-opacity="0.994003"/>
</linearGradient>
</defs>
</svg>
