<svg width="26" height="26" viewBox="0 0 26 26" fill="none" xmlns="http://www.w3.org/2000/svg">
<circle cx="13.0001" cy="13.0003" r="10.6893" fill="white"/>
<g clip-path="url(#clip0_382_3352)">
<path d="M8.98297 8.76825L11.4563 11.2416M14.758 14.5432L17.2313 17.0166M17.2313 8.76825L14.758 11.2416L16.8171 9.18242M8.98297 17.0166L11.4563 14.5432M18.9405 12.8924C18.9405 16.1141 16.3288 18.7257 13.1071 18.7257C9.88548 18.7257 7.2738 16.1141 7.2738 12.8924C7.2738 9.67075 9.88548 7.05908 13.1071 7.05908C16.3288 7.05908 18.9405 9.67075 18.9405 12.8924ZM15.4405 12.8924C15.4405 14.1811 14.3958 15.2257 13.1071 15.2257C11.8185 15.2257 10.7738 14.1811 10.7738 12.8924C10.7738 11.6038 11.8185 10.5591 13.1071 10.5591C14.3958 10.5591 15.4405 11.6038 15.4405 12.8924Z" stroke="black" stroke-width="1.5" stroke-linecap="round" stroke-linejoin="round"/>
</g>
<defs>
<clipPath id="clip0_382_3352">
<rect width="14" height="14" fill="white" transform="translate(6.10718 5.89258)"/>
</clipPath>
</defs>
</svg>
