<svg width="22" height="22" viewBox="0 0 22 22" fill="none" xmlns="http://www.w3.org/2000/svg">
<path d="M21.5948 10.9998C21.5948 13.8348 20.4687 16.5536 18.464 18.5583C16.4594 20.5629 13.7405 21.6891 10.9056 21.6891C8.07061 21.6891 5.35175 20.5629 3.34712 18.5583C1.3425 16.5536 0.216309 13.8348 0.216309 10.9998C0.216309 8.16485 1.3425 5.44599 3.34712 3.44136C5.35175 1.43673 8.07061 0.310547 10.9056 0.310547C13.7405 0.310547 16.4594 1.43673 18.464 3.44136C20.4687 5.44599 21.5948 8.16485 21.5948 10.9998ZM11.2891 8.2019C10.2495 8.63482 8.17046 9.53004 5.05454 10.8876C4.54947 11.088 4.28358 11.2858 4.25952 11.4782C4.21944 11.8028 4.62697 11.9311 5.18147 12.1062L5.4153 12.1796C5.96045 12.3574 6.69534 12.5645 7.07615 12.5725C7.42355 12.5805 7.8097 12.4389 8.23593 12.1449C11.1474 10.1794 12.6506 9.18665 12.7441 9.16527C12.8109 9.14924 12.9045 9.13053 12.9659 9.18665C13.0287 9.24143 13.0221 9.34699 13.0154 9.37505C12.9753 9.54741 11.3759 11.0332 10.5488 11.8028C10.2909 12.0434 10.1079 12.213 10.0705 12.2518C9.9881 12.336 9.90435 12.4188 9.81928 12.5003C9.31154 12.9894 8.93207 13.3555 9.83932 13.9541C10.2762 14.2427 10.6263 14.4792 10.9751 14.717C11.3545 14.9762 11.734 15.2341 12.2257 15.5575C12.35 15.6376 12.4702 15.7245 12.5865 15.8073C13.0287 16.1226 13.4282 16.4059 13.9186 16.3605C14.2046 16.3338 14.4998 16.0665 14.6495 15.2648C15.0036 13.3715 15.6997 9.27083 15.8601 7.58059C15.8698 7.44008 15.864 7.29892 15.8427 7.1597C15.8301 7.04735 15.7757 6.94385 15.6904 6.86975C15.5688 6.78583 15.4239 6.74235 15.2762 6.74549C14.8753 6.75217 14.2567 6.96729 11.2891 8.2019Z" fill="white"/>
</svg>
