<svg width="46" height="46" viewBox="0 0 46 46" fill="none" xmlns="http://www.w3.org/2000/svg">
<g clip-path="url(#clip0_387_3191)">
<path d="M24.5687 9.11108L9.85078 23.829M24.5687 9.11108L16.7981 9.11108M24.5687 9.11108L24.5677 16.9219" stroke="#FFB703" stroke-width="3.83533" stroke-linecap="round" stroke-linejoin="round"/>
<path d="M35.1902 26.2009C35.1902 31.5748 30.8338 35.9312 25.4599 35.9312C20.086 35.9312 15.7296 31.5748 15.7296 26.2009C15.7296 20.827 20.086 16.4706 25.4599 16.4706C30.8338 16.4706 35.1902 20.827 35.1902 26.2009ZM22.7312 26.2009C22.7312 27.7079 23.9529 28.9296 25.4599 28.9296C26.967 28.9296 28.1887 27.7079 28.1887 26.2009C28.1887 24.6939 26.967 23.4722 25.4599 23.4722C23.9529 23.4722 22.7312 24.6939 22.7312 26.2009Z" fill="#3BF1A5"/>
</g>
<defs>
<clipPath id="clip0_387_3191">
<rect width="45.041" height="45.041" fill="white"/>
</clipPath>
</defs>
</svg>
