<svg width="122" height="41" viewBox="0 0 122 41" fill="none" xmlns="http://www.w3.org/2000/svg">
<g clip-path="url(#clip0_222_783)">
<path fill-rule="evenodd" clip-rule="evenodd" d="M64.9087 29.6188C65.2354 29.6188 65.4841 29.6968 65.6499 29.8553C65.8157 30.0138 65.8986 30.2235 65.8986 30.4868C65.8986 30.7209 65.8206 30.9257 65.6621 31.0963C65.5036 31.267 65.2939 31.3548 65.0306 31.3548H64.4722V32.2228H63.9773V29.6212H64.9087V29.6188ZM64.9721 30.8574C65.094 30.8574 65.1964 30.8233 65.2793 30.7526C65.3622 30.6843 65.4061 30.5941 65.4061 30.4844C65.4061 30.3649 65.3646 30.2747 65.2842 30.2088C65.2037 30.143 65.0989 30.1113 64.9721 30.1113H64.4771V30.855H64.9721V30.8574ZM66.4472 30.5356C66.6447 30.3356 66.886 30.2381 67.1713 30.2381C67.4566 30.2381 67.6955 30.3381 67.8954 30.5356C68.0954 30.7331 68.1929 30.9744 68.1929 31.2597C68.1929 31.545 68.0929 31.7839 67.8954 31.9838C67.6979 32.1813 67.4566 32.2813 67.1713 32.2813C66.886 32.2813 66.6447 32.1813 66.4472 31.9838C66.2472 31.7839 66.1497 31.5425 66.1497 31.2597C66.1473 30.9769 66.2472 30.7355 66.4472 30.5356ZM66.7983 31.6327C66.9007 31.7351 67.025 31.7888 67.1713 31.7888C67.3151 31.7888 67.4395 31.7376 67.5443 31.6327C67.6467 31.5303 67.7004 31.406 67.7004 31.2597C67.7004 31.1158 67.6492 30.9915 67.5443 30.8891C67.4419 30.7867 67.3176 30.7331 67.1713 30.7331C67.0274 30.7331 66.9031 30.7843 66.7983 30.8891C66.6959 30.9915 66.6422 31.1158 66.6422 31.2597C66.6446 31.406 66.6959 31.5303 66.7983 31.6327ZM70.6408 30.3015H71.1991L70.5482 32.2228H70.0995L69.7436 31.1695L69.3876 32.2228H68.939L68.288 30.3015H68.8463L69.1877 31.5401L69.5607 30.3015H69.9337L70.3043 31.5401L70.6408 30.3015ZM73.2131 31.2597C73.2131 31.2963 73.2106 31.3475 73.2058 31.4157H71.8087C71.8453 31.5474 71.9111 31.6522 72.0086 31.7327C72.1061 31.8107 72.2281 31.8497 72.3792 31.8497C72.5938 31.8497 72.784 31.7912 72.9522 31.6717L73.096 32.1009C73.0741 32.1131 73.0473 32.1301 73.0083 32.1521C72.9717 32.174 72.8888 32.2008 72.7645 32.2325C72.6401 32.2667 72.5084 32.2837 72.3719 32.2837C72.0159 32.2837 71.7477 32.1886 71.5673 31.996C71.3869 31.8058 71.2967 31.5596 71.2967 31.2597C71.2967 30.9598 71.382 30.716 71.5527 30.5234C71.7234 30.3332 71.9696 30.2357 72.289 30.2357C72.5889 30.2357 72.8181 30.3259 72.979 30.5063C73.1326 30.6867 73.2131 30.9379 73.2131 31.2597ZM71.8184 31.0427H72.6864C72.6864 30.9501 72.6474 30.8647 72.5718 30.7867C72.4963 30.7087 72.389 30.6697 72.2524 30.6697C72.1354 30.6697 72.0354 30.7111 71.9477 30.7916C71.8623 30.8745 71.8184 30.9574 71.8184 31.0427ZM74.0177 30.7062C74.0811 30.5648 74.1835 30.4527 74.3273 30.3746C74.4712 30.2966 74.637 30.2503 74.8223 30.2357V30.8208C74.693 30.7867 74.5687 30.7867 74.4492 30.8208C74.3298 30.855 74.2298 30.9232 74.1445 31.0232C74.0591 31.1256 74.0177 31.2548 74.0177 31.4133V32.2179H73.5227V30.2966H74.0177V30.7062ZM76.9313 31.2597C76.9313 31.2963 76.9288 31.3475 76.924 31.4157H75.5269C75.5635 31.5474 75.6293 31.6522 75.7268 31.7327C75.8244 31.8107 75.9463 31.8497 76.0974 31.8497C76.312 31.8497 76.5022 31.7912 76.6704 31.6717L76.8142 32.1009C76.7923 32.1131 76.7655 32.1301 76.7265 32.1521C76.6899 32.174 76.607 32.2008 76.4827 32.2325C76.3583 32.2667 76.2267 32.2837 76.0901 32.2837C75.7341 32.2837 75.4659 32.1886 75.2855 31.996C75.1051 31.8058 75.0149 31.5596 75.0149 31.2597C75.0149 30.9598 75.1002 30.716 75.2709 30.5234C75.4416 30.3332 75.6878 30.2357 76.0072 30.2357C76.3071 30.2357 76.5363 30.3259 76.6972 30.5063C76.8508 30.6867 76.9313 30.9379 76.9313 31.2597ZM75.5367 31.0427H76.4046C76.4046 30.9501 76.3656 30.8647 76.29 30.7867C76.2145 30.7087 76.1072 30.6697 75.9706 30.6697C75.8536 30.6697 75.7536 30.7111 75.6659 30.7916C75.5805 30.8745 75.5367 30.9574 75.5367 31.0427ZM78.1382 30.2381C78.3747 30.2381 78.5722 30.3283 78.7258 30.5063V29.4945H79.2207V32.2203H78.7258V32.0155C78.5697 32.1935 78.3747 32.2837 78.1382 32.2837C77.8724 32.2837 77.6457 32.1838 77.4579 31.9838C77.2702 31.7839 77.1775 31.5425 77.1775 31.2621C77.1775 30.9817 77.2702 30.7404 77.4579 30.5404C77.6457 30.3381 77.8724 30.2381 78.1382 30.2381ZM77.8285 31.6327C77.9309 31.7351 78.0553 31.7888 78.2016 31.7888C78.3454 31.7888 78.4698 31.7376 78.5746 31.6327C78.677 31.5303 78.7307 31.406 78.7307 31.2597C78.7307 31.1158 78.6794 30.9915 78.5746 30.8891C78.4722 30.7867 78.3479 30.7331 78.2016 30.7331C78.0577 30.7331 77.9334 30.7843 77.8285 30.8891C77.7261 30.9915 77.6725 31.1158 77.6725 31.2597C77.6725 31.406 77.7261 31.5303 77.8285 31.6327ZM81.9807 30.2381C82.2465 30.2381 82.4732 30.3381 82.661 30.538C82.8487 30.7379 82.9414 30.9793 82.9414 31.2597C82.9414 31.5425 82.8487 31.7815 82.661 31.9814C82.4732 32.1813 82.2465 32.2813 81.9807 32.2813C81.7442 32.2813 81.5467 32.1935 81.3931 32.0131V32.2179H80.8982V29.492H81.3931V30.5039C81.5467 30.3283 81.7418 30.2381 81.9807 30.2381ZM81.5467 31.6327C81.6491 31.7351 81.7735 31.7888 81.9198 31.7888C82.0636 31.7888 82.188 31.7376 82.2904 31.6327C82.3928 31.5303 82.4464 31.406 82.4464 31.2597C82.4464 31.1158 82.3952 30.9915 82.2904 30.8891C82.188 30.7867 82.0636 30.7331 81.9198 30.7331C81.7759 30.7331 81.6516 30.7843 81.5467 30.8891C81.4443 30.9915 81.3907 31.1158 81.3907 31.2597C81.3907 31.406 81.4443 31.5303 81.5467 31.6327ZM84.5213 30.3015H85.0796L83.8411 33.2127H83.2827L83.7703 32.0643L83.034 30.3015H83.5924L84.0507 31.4084L84.5213 30.3015ZM88.1103 30.8233C88.259 30.8623 88.3712 30.9379 88.4419 31.0476C88.5126 31.1597 88.5492 31.289 88.5492 31.4377C88.5492 31.6669 88.4687 31.8546 88.3102 32.0009C88.1493 32.1472 87.9323 32.2203 87.6592 32.2203H86.506V29.6188H87.4349C87.747 29.6188 87.9908 29.6749 88.1639 29.7846C88.337 29.8968 88.4248 30.0674 88.4248 30.2991C88.4248 30.4234 88.3956 30.5307 88.337 30.6209C88.2785 30.716 88.2029 30.7818 88.1103 30.8233ZM86.9985 30.1138V30.6087H87.4642C87.7738 30.6087 87.9299 30.5258 87.9299 30.36C87.9299 30.2649 87.8933 30.1991 87.8177 30.165C87.7421 30.1308 87.6251 30.1138 87.4642 30.1138H86.9985ZM87.5276 31.7254C87.8787 31.7254 88.0542 31.6108 88.0542 31.384C88.0542 31.2695 88.0079 31.1866 87.9152 31.128C87.8226 31.072 87.6934 31.0427 87.5276 31.0427H87.0009V31.7254H87.5276ZM89.4098 29.9528C89.344 30.0187 89.2635 30.0504 89.1685 30.0504C89.0734 30.0504 88.9929 30.0187 88.9271 29.9528C88.8612 29.887 88.8295 29.8065 88.8295 29.7115C88.8295 29.6164 88.8612 29.5359 88.9271 29.4701C88.9929 29.4043 89.0734 29.3701 89.1685 29.3701C89.2635 29.3701 89.344 29.4018 89.4098 29.4701C89.4757 29.5359 89.5074 29.6164 89.5074 29.7115C89.5098 29.8065 89.4757 29.887 89.4098 29.9528ZM88.9198 32.2203V30.2991H89.4147V32.2203H88.9198ZM90.8093 31.7863C90.9898 31.7863 91.1385 31.7278 91.2555 31.6132L91.4603 32.0545C91.3018 32.2081 91.08 32.2837 90.7947 32.2837C90.468 32.2837 90.2071 32.1862 90.0145 31.9912C89.8219 31.7961 89.7268 31.5523 89.7268 31.2621C89.7268 30.9696 89.8243 30.7282 90.0169 30.5331C90.212 30.3381 90.4704 30.2405 90.7947 30.2405C91.0678 30.2405 91.2897 30.3161 91.4603 30.4697L91.2555 30.9159C91.1361 30.7964 90.9873 30.7379 90.8093 30.7379C90.6314 30.7379 90.4875 30.7891 90.3827 30.8891C90.2754 30.9891 90.2217 31.1158 90.2217 31.2646C90.2217 31.4157 90.2754 31.5401 90.3827 31.6401C90.4899 31.7376 90.6314 31.7863 90.8093 31.7863ZM91.9577 31.6742V30.7331H91.709V30.2991H91.9577V29.6164H92.4527V30.2991H92.8257V30.7331H92.4527V31.5377C92.4527 31.6742 92.4844 31.7595 92.5478 31.7937C92.6111 31.8278 92.7038 31.8254 92.8257 31.7863V32.2203C92.7233 32.2618 92.6014 32.2813 92.46 32.2813C92.2893 32.2813 92.1625 32.2276 92.0796 32.1179C91.9992 32.0082 91.9577 31.8619 91.9577 31.6742ZM93.4011 30.5356C93.5986 30.3356 93.84 30.2381 94.1252 30.2381C94.4105 30.2381 94.6495 30.3381 94.8494 30.5356C95.0493 30.7331 95.1468 30.9744 95.1468 31.2597C95.1468 31.545 95.0469 31.7839 94.8494 31.9838C94.6519 32.1813 94.4105 32.2813 94.1252 32.2813C93.84 32.2813 93.601 32.1813 93.4011 31.9838C93.2012 31.7839 93.1037 31.5425 93.1037 31.2597C93.1037 30.9769 93.2036 30.7355 93.4011 30.5356ZM93.7546 31.6327C93.857 31.7351 93.9814 31.7888 94.1277 31.7888C94.2715 31.7888 94.3959 31.7376 94.5007 31.6327C94.6031 31.5303 94.6568 31.406 94.6568 31.2597C94.6568 31.1158 94.6056 30.9915 94.5007 30.8891C94.3983 30.7867 94.274 30.7331 94.1277 30.7331C93.9838 30.7331 93.8595 30.7843 93.7546 30.8891C93.6522 30.9915 93.5986 31.1158 93.5986 31.2597C93.5986 31.406 93.6498 31.5303 93.7546 31.6327ZM95.9539 30.7062C96.0173 30.5648 96.1197 30.4527 96.2635 30.3746C96.4074 30.2966 96.5732 30.2503 96.7585 30.2357V30.8208C96.6292 30.7867 96.5049 30.7867 96.3854 30.8208C96.266 30.855 96.166 30.9232 96.0807 31.0232C95.9953 31.1256 95.9539 31.2548 95.9539 31.4133V32.2179H95.4589V30.2966H95.9539V30.7062ZM98.3701 30.3015H98.9284L97.6899 33.2127H97.1315L97.6191 32.0643L96.8828 30.3015H97.4412L97.8995 31.4084L98.3701 30.3015ZM99.6721 32.2203H99.1771V29.6188H100.789V30.1138H99.6721V30.6721H100.601V31.167H99.6721V32.2203ZM101.649 29.9528C101.584 30.0187 101.503 30.0504 101.408 30.0504C101.313 30.0504 101.233 30.0187 101.167 29.9528C101.101 29.887 101.067 29.8065 101.067 29.7115C101.067 29.6164 101.098 29.5359 101.167 29.4701C101.233 29.4043 101.313 29.3701 101.408 29.3701C101.503 29.3701 101.584 29.4018 101.649 29.4701C101.715 29.5359 101.749 29.6164 101.749 29.7115C101.747 29.8065 101.715 29.887 101.649 29.9528ZM101.159 32.2203V30.2991H101.654V32.2203H101.159ZM103.198 30.2381C103.422 30.2381 103.598 30.3113 103.727 30.46C103.854 30.6063 103.919 30.8233 103.919 31.1061V32.2203H103.424V31.167C103.424 31.0159 103.395 30.9062 103.334 30.8379C103.276 30.7672 103.181 30.7331 103.051 30.7331C102.927 30.7331 102.825 30.7745 102.742 30.8574C102.659 30.9403 102.617 31.0646 102.617 31.2304V32.2228H102.122V30.3015H102.617V30.4868C102.754 30.321 102.949 30.2381 103.198 30.2381ZM105.777 30.3015H106.272V32.2228H105.777V32.018C105.621 32.196 105.426 32.2862 105.19 32.2862C104.924 32.2862 104.697 32.1862 104.509 31.9863C104.322 31.7863 104.229 31.545 104.229 31.2646C104.229 30.9842 104.322 30.7428 104.509 30.5429C104.697 30.3429 104.924 30.243 105.19 30.243C105.426 30.243 105.624 30.3332 105.777 30.5112V30.3015ZM104.878 31.6327C104.98 31.7351 105.104 31.7888 105.251 31.7888C105.397 31.7888 105.519 31.7376 105.624 31.6327C105.726 31.5303 105.78 31.406 105.78 31.2597C105.78 31.1158 105.728 30.9915 105.624 30.8891C105.521 30.7867 105.397 30.7331 105.251 30.7331C105.104 30.7331 104.982 30.7843 104.878 30.8891C104.775 30.9915 104.722 31.1158 104.722 31.2597C104.722 31.406 104.775 31.5303 104.878 31.6327ZM107.813 30.2381C108.037 30.2381 108.213 30.3113 108.342 30.46C108.469 30.6063 108.535 30.8233 108.535 31.1061V32.2203H108.04V31.167C108.04 31.0159 108.011 30.9062 107.95 30.8379C107.891 30.7672 107.796 30.7331 107.667 30.7331C107.542 30.7331 107.44 30.7745 107.357 30.8574C107.274 30.9403 107.233 31.0646 107.233 31.2304V32.2228H106.738V30.3015H107.233V30.4868C107.372 30.321 107.564 30.2381 107.813 30.2381ZM109.927 31.7863C110.107 31.7863 110.256 31.7278 110.373 31.6132L110.578 32.0545C110.42 32.2081 110.198 32.2837 109.912 32.2837C109.586 32.2837 109.325 32.1862 109.132 31.9912C108.94 31.7961 108.844 31.5523 108.844 31.2621C108.844 30.9696 108.942 30.7282 109.135 30.5331C109.33 30.3381 109.588 30.2405 109.912 30.2405C110.185 30.2405 110.407 30.3161 110.578 30.4697L110.373 30.9159C110.254 30.7964 110.105 30.7379 109.927 30.7379C109.749 30.7379 109.605 30.7891 109.5 30.8891C109.393 30.9891 109.339 31.1158 109.339 31.2646C109.339 31.4157 109.393 31.5401 109.5 31.6401C109.608 31.7376 109.749 31.7863 109.927 31.7863ZM112.685 31.2597C112.685 31.2963 112.682 31.3475 112.677 31.4157H111.28C111.317 31.5474 111.383 31.6522 111.48 31.7327C111.578 31.8107 111.7 31.8497 111.851 31.8497C112.065 31.8497 112.255 31.7912 112.424 31.6717L112.568 32.1009C112.546 32.1131 112.519 32.1301 112.48 32.1521C112.443 32.174 112.36 32.2008 112.236 32.2325C112.112 32.2667 111.98 32.2837 111.843 32.2837C111.487 32.2837 111.219 32.1886 111.039 31.996C110.858 31.8058 110.768 31.5596 110.768 31.2597C110.768 30.9598 110.854 30.716 111.024 30.5234C111.195 30.3332 111.439 30.2357 111.761 30.2357C112.06 30.2357 112.29 30.3259 112.451 30.5063C112.607 30.6867 112.685 30.9379 112.685 31.2597ZM111.292 31.0427H112.16C112.16 30.9501 112.121 30.8647 112.046 30.7867C111.97 30.7087 111.863 30.6697 111.726 30.6697C111.609 30.6697 111.509 30.7111 111.422 30.7916C111.334 30.8745 111.292 30.9574 111.292 31.0427Z" fill="white"/>
<path fill-rule="evenodd" clip-rule="evenodd" d="M70.8875 24.0233C72.7307 24.0233 74.2717 23.3869 75.5078 22.1142L76.8634 25.3228C76.0881 26.0226 75.1567 26.5712 74.0693 26.9686C72.9819 27.366 71.9017 27.5635 70.8338 27.5635C68.1055 27.5635 65.7722 26.6102 63.8363 24.7011C61.9004 22.792 60.9324 20.5026 60.9324 17.8279C60.9324 15.1532 61.9004 12.8638 63.8363 10.9547C65.7722 9.04561 68.1055 8.09228 70.8338 8.09228C71.9042 8.09228 72.9819 8.2849 74.0693 8.67257C75.1567 9.06023 76.0881 9.60395 76.8634 10.3037L75.5078 13.5123C74.218 12.2591 72.6771 11.6325 70.8875 11.6325C69.1174 11.6325 67.6057 12.2372 66.35 13.4441C65.0968 14.651 64.4702 16.1139 64.4702 17.8279C64.4702 19.5419 65.0968 21.0048 66.35 22.2117C67.6033 23.4186 69.1174 24.0233 70.8875 24.0233ZM92.1312 8.53115H95.6715V27.1197H92.1312L82.8369 14.2852V27.1197H79.2967V8.53115H82.8052L92.1312 21.412V8.53115ZM106.295 15.8335C107.419 16.0188 108.369 16.2309 109.142 16.4698C109.918 16.7088 110.647 17.0379 111.327 17.4524C112.01 17.8669 112.522 18.4204 112.863 19.1128C113.204 19.8028 113.375 20.6293 113.375 21.5875C113.375 23.3211 112.724 24.7498 111.424 25.8763C110.125 27.0003 108.284 27.5635 105.907 27.5635C102.92 27.5635 100.394 26.5297 98.3266 24.4646L100.097 21.3657C100.853 22.2337 101.774 22.892 102.862 23.343C103.949 23.7941 104.983 24.0208 105.961 24.0208C107.177 24.0208 108.128 23.8185 108.811 23.4113C109.493 23.0066 109.835 22.4702 109.835 21.807C109.835 20.6269 108.582 19.8516 106.073 19.4834C103.527 19.0957 101.711 18.4374 100.623 17.5061C99.536 16.5771 98.9898 15.3727 98.9898 13.8976C98.9898 12.2762 99.6262 10.9011 100.899 9.77706C102.172 8.65306 103.915 8.08984 106.126 8.08984C108.523 8.08984 110.644 8.84568 112.487 10.3573L110.993 13.4002C109.628 12.2201 107.987 11.6301 106.07 11.6301C105.036 11.6301 104.19 11.791 103.525 12.1153C102.862 12.4371 102.528 12.9491 102.528 13.6513C102.528 14.2608 102.806 14.7217 103.357 15.0337C103.915 15.3458 104.893 15.614 106.295 15.8335Z" fill="white"/>
<path fill-rule="evenodd" clip-rule="evenodd" d="M28.5958 23.8958C29.5783 23.101 30.0683 22.0161 30.0683 20.6411C30.0683 19.9706 29.9611 19.3563 29.749 18.798C29.5369 18.2421 29.1882 17.7667 28.7055 17.3742C28.2228 16.9817 27.5889 16.6745 26.8015 16.4527C25.2217 16.0089 22.6642 16.0089 21.0844 16.4527C20.297 16.6745 19.6631 16.9793 19.1804 17.3742C18.6977 17.7667 18.349 18.2421 18.1369 18.798C17.9248 19.3538 17.8176 19.9682 17.8176 20.6411C17.8176 22.0161 18.31 23.101 19.2901 23.8958C21.2795 25.5024 26.6064 25.5024 28.5958 23.8958Z" fill="white"/>
<path d="M11.3609 20.481H8.99182C8.99182 21.6038 9.39379 24.1826 9.48782 24.8871C9.95884 28.4164 11.3609 33.5944 20.5194 38.0219C24.7886 40.0858 38.5774 41.067 46.2721 38.0219C54.8167 34.6404 57.3155 29.0809 57.3155 23.6783H36.5672C36.5672 26.5798 32.6852 28.8632 29.7998 29.627C27.2104 30.3124 19.1313 31.1177 14.4389 27.5508C14.0043 27.1688 11.2616 25.1636 11.3609 20.481Z" fill="white" stroke="white" stroke-width="0.243817"/>
<path d="M11.3609 21.1792H8.99182C8.99182 20.0564 9.39379 17.4776 9.48782 16.773C9.95884 13.2437 11.3609 8.06577 20.5194 3.63827C24.7886 1.57435 38.5774 0.593136 46.2721 3.63827C54.8167 7.01973 57.3155 12.5793 57.3155 17.9818H36.5672C36.5672 15.0803 32.6852 12.7969 29.7998 12.0332C27.2104 11.3477 19.1313 10.5424 14.4389 14.1094C14.0043 14.4913 11.2616 16.4965 11.3609 21.1792Z" fill="white" stroke="white" stroke-width="0.243817"/>
</g>
<defs>
<clipPath id="clip0_222_783">
<rect width="121.908" height="40.7174" fill="white"/>
</clipPath>
</defs>
</svg>
