<svg width="314" height="64" viewBox="0 0 314 64" fill="none" xmlns="http://www.w3.org/2000/svg">
<path d="M13.8205 41.6295L21.3417 23.1445H26.9497V47.2454H23.2526V26.8318L14.943 47.3741H12.2838L4.05654 26.9605V47.2454H0.484192V23.1445H6.34162L13.8205 41.6295Z" fill="white"/>
<path d="M47.1913 43.3444C46.4006 45.0593 44.1179 47.7191 40.3361 47.7191C35.2246 47.7191 31.7347 43.7306 31.7347 38.241V26.0619H35.5565V37.5123C35.5565 41.5008 37.7592 44.1169 41.2491 44.1169C44.7391 44.1169 47.1913 41.4158 47.1913 37.5123V26.0619H50.9731V47.2479H47.1913V43.3444Z" fill="white"/>
<path d="M73.6967 47.2451C68.9171 47.2451 66.5097 44.8865 66.5097 40.1693V29.5763H61.9983V26.0591H66.5097V20.7176H70.2915V26.0591H78.5587V29.5763H70.2915V39.2681C70.2915 42.3554 71.2469 43.6428 74.5298 43.6428H78.561V47.2451H73.6967Z" fill="white"/>
<path d="M100.464 47.6317H97.4304L87.7488 26.0619H91.9872L99.0495 42.3995L106.072 26.0619H109.976L100.461 47.6317H100.464Z" fill="white"/>
<path d="M130.877 37.1259H113.801C114.008 41.0707 116.752 44.1604 120.781 44.1604C124.81 44.1604 126.556 41.8868 126.888 41.2019H130.627C130.295 43.0455 127.676 47.7627 120.781 47.7627C114.425 47.7627 109.977 42.873 109.977 36.6547C109.977 30.4364 114.422 25.5467 120.404 25.5467C126.387 25.5467 130.874 30.1789 130.874 37.1259H130.877ZM114.05 33.8662H126.681C125.725 30.6501 123.523 28.8915 120.407 28.8915C117.084 28.8915 114.839 30.7789 114.05 33.8662Z" fill="white"/>
<path d="M138.326 47.2451H134.544V26.0615H138.326V29.965C138.907 28.4201 140.653 25.8915 145.473 25.8915H147.69V29.795H145.39C140.114 29.795 138.328 31.5099 138.328 35.2846V47.25L138.326 47.2451Z" fill="white"/>
<path d="M156.006 37.9395C152.06 37.4683 149.276 35.5372 149.276 31.6362C149.276 27.7351 152.683 25.4616 157.71 25.4616C164.65 25.4616 166.893 29.1488 167.556 31.2937H163.525C163.068 30.735 161.532 28.8063 157.708 28.8063C154.592 28.8063 153.013 29.965 153.013 31.5074C153.013 33.0499 154.053 33.951 156.503 34.2522C158.122 34.466 159.12 34.5534 160.906 34.7672C165.768 35.4109 167.843 37.5533 167.843 41.4567C167.843 45.0177 164.685 47.8475 158.87 47.8475C151.641 47.8475 149.106 43.2591 148.65 41.3304H152.681C152.888 42.0154 154.549 44.4177 158.873 44.4177C162.363 44.4177 164.066 43.1303 164.066 41.4592C164.066 39.788 163.193 38.7994 160.409 38.4569L156.006 37.9419V37.9395Z" fill="white"/>
<path d="M81.3839 15.8477H85.3305V21.981H81.3839V15.8477ZM81.4663 26.0544H85.2481V47.2404H81.4663V26.0544Z" fill="white"/>
<path d="M55.7553 19.5473H59.5371V47.2406H55.7553V19.5473Z" fill="white"/>
<path d="M183.027 28.7627L192.21 23.7346L190.666 20.6934L182.258 24.1791C182.041 24.269 181.801 24.269 181.585 24.1791L173.176 20.6934L171.632 23.7346L180.815 28.7627L171.632 33.7908L173.176 36.8319L181.585 33.3462C181.801 33.2564 182.041 33.2564 182.258 33.3462L190.666 36.8319L192.21 33.7908L183.027 28.7627Z" fill="#23F7DD"/>
<path d="M215.931 29.6007L209.796 47.4636H206.564L198.751 23.6605H202.883L208.446 41.3138L214.419 23.5333H217.691L223.705 41.4386L229.307 23.6605H233.03L225.422 47.466H222.027L215.933 29.603L215.931 29.6007Z" fill="white"/>
<path d="M242.278 34.2786H249.191C249.191 31.0777 246.817 29.3489 243.506 29.3489C240.195 29.3489 238.803 31.2873 238.476 31.9609H234.712C235.245 29.4761 237.943 25.9784 243.506 25.9784C249.397 25.9784 252.751 29.3913 252.751 34.2362V41.9452C252.751 43.4197 253.243 43.9685 254.551 44.0933V47.5486C251.647 47.4638 249.888 46.3686 249.356 44.3053C248.375 45.8645 246.248 47.803 242.647 47.803C237.861 47.803 234.138 45.0637 234.138 40.7676C234.138 36.4714 237.207 34.2786 242.278 34.2786ZM249.191 37.3123H242.443C239.663 37.3123 237.861 38.4499 237.861 40.7676C237.861 43.0852 240.07 44.6021 242.974 44.6021C246.246 44.6021 249.191 42.958 249.191 39.4627V37.3123Z" fill="white"/>
<path d="M258.13 20.4928H261.852V47.339H258.13V20.4928Z" fill="white"/>
<path d="M266.874 20.4928H270.597V47.339H266.874V20.4928Z" fill="white"/>
<path d="M294.884 37.397H278.073C278.276 41.2739 280.977 44.3076 284.944 44.3076C288.911 44.3076 290.628 42.0747 290.958 41.4011H294.639C294.312 43.2123 291.735 47.8477 284.946 47.8477C278.688 47.8477 274.311 43.0451 274.311 36.9354C274.311 30.8256 278.688 26.0231 284.578 26.0231C290.468 26.0231 294.886 30.5736 294.886 37.3994L294.884 37.397ZM278.317 34.1961H290.752C289.812 31.0352 287.644 29.3088 284.576 29.3088C281.304 29.3088 279.095 31.1624 278.317 34.1961Z" fill="white"/>
<path d="M313.484 47.3388H308.698C303.995 47.3388 301.621 45.0212 301.621 40.3859V29.98H295.648V26.5247H301.621V21.6279H305.344V26.5247H313.484V29.98H305.344V39.5026C305.344 42.5363 306.284 43.8011 309.517 43.8011H313.484V47.3412V47.3388Z" fill="white"/>
</svg>
