<svg width="185" height="64" viewBox="0 0 185 64" fill="none" xmlns="http://www.w3.org/2000/svg">
<path d="M51.7332 18.4433C58.7365 18.4433 62.5451 21.7366 62.5451 27.6664C62.5451 33.5963 58.7365 37.0001 51.7332 37.0001H40.0223V49.2986H34.8105V18.4433H51.7332ZM40.0254 32.3317H51.6236C55.3758 32.3317 57.1705 30.5208 57.1705 27.7186C57.1705 24.9164 55.4353 23.1055 51.6236 23.1055H40.0254V32.3317Z" fill="#FAFAFA"/>
<path d="M94.3139 35.3884C94.3139 43.5719 87.9594 49.8044 79.6902 49.8044C71.4209 49.8044 65.0665 43.5719 65.0665 35.3884C65.0665 27.2049 71.3643 20.9724 79.6902 20.9724C88.016 20.9724 94.3139 27.2049 94.3139 35.3884ZM89.0285 35.3884C89.0285 29.8778 85.2586 25.6491 79.6933 25.6491C74.1281 25.6491 70.3582 29.9898 70.3582 35.3884C70.3582 40.787 74.1249 45.1277 79.6933 45.1277C85.2617 45.1277 89.0285 40.8991 89.0285 35.3884Z" fill="#FAFAFA"/>
<path d="M157.818 31.9377H167.21C167.21 27.709 163.985 25.4251 159.486 25.4251C154.988 25.4251 153.095 27.9859 152.651 28.8759H147.537C148.261 25.5931 151.927 20.9724 159.486 20.9724C167.489 20.9724 172.047 25.4811 172.047 31.8817V42.0659C172.047 44.0138 172.715 44.7388 174.492 44.9037V49.4684C170.547 49.3564 168.157 47.9095 167.433 45.1837C166.101 47.2436 163.211 49.8044 158.318 49.8044C151.815 49.8044 146.758 46.1856 146.758 40.5101C146.758 34.8346 150.927 31.9377 157.818 31.9377ZM167.21 35.9454H158.042C154.264 35.9454 151.815 37.4483 151.815 40.5101C151.815 43.5719 154.817 45.5758 158.762 45.5758C163.208 45.5758 167.21 43.4039 167.21 38.7863V35.9454Z" fill="#FAFAFA"/>
<path d="M179.031 13.8909H184.073V49.2986H179.031V13.8909Z" fill="#FAFAFA"/>
<path d="M143.228 49.2955H136.733C130.35 49.2955 127.128 46.2408 127.128 40.1314V26.4164H119.023V21.8623H127.128V15.4083H132.18V21.8623H143.228V26.4164H132.18V38.9673C132.18 42.9657 133.456 44.6328 137.844 44.6328H143.228V49.2986V49.2955Z" fill="#FAFAFA"/>
<path d="M98.8523 49.2986V21.6969H103.93V26.7156C104.71 24.7294 107.054 21.4782 113.525 21.4782H116.502V26.497H113.415C106.331 26.497 103.933 28.8425 103.933 33.6926V49.2986H98.8523Z" fill="#FAFAFA"/>
<path d="M15.0964 26.0322L27.2465 19.7275L25.2039 15.9142L14.0782 20.2848C13.7917 20.3975 13.4741 20.3975 13.1876 20.2848L2.05884 15.9142L0.0161743 19.7275L12.1663 26.0322L0.0161743 32.3339L2.05884 36.1472L13.1845 31.7765C13.471 31.6638 13.7886 31.6638 14.0751 31.7765L25.2008 36.1472L27.2434 32.3339L15.0933 26.0291L15.0964 26.0322Z" fill="#23F7DD"/>
</svg>
