<svg width="144" height="25" viewBox="0 0 144 25" fill="none" xmlns="http://www.w3.org/2000/svg">
<path d="M10.6385 7.36232L19.21 2.77472L17.769 0L9.92023 3.18029C9.71814 3.26229 9.49407 3.26229 9.29198 3.18029L1.44103 0.00221617L0 2.77472L8.57147 7.36232L0 11.9499L1.44103 14.7246L9.28978 11.5443C9.49188 11.4623 9.71594 11.4623 9.91803 11.5443L17.7668 14.7246L19.2078 11.9499L10.6364 7.36232H10.6385Z" fill="#2CEF32"/>
<path d="M45.7108 1.97538H42.2703V18.2845L29.7592 1.97538H25.4586V24.4404H28.9382V6.53234L42.974 24.5603H45.7108V1.97538Z" fill="white"/>
<path d="M65.7258 19.3238V12.0087C65.7258 7.41175 62.4808 4.17391 56.8899 4.17391C51.5727 4.17391 48.9923 7.4917 48.484 9.85012H52.081C52.4328 9.21055 53.6839 7.37178 56.8899 7.37178C60.0567 7.37178 62.3244 9.05066 62.3244 12.0487H55.717C50.9081 12.0487 47.9367 14.2072 47.9367 18.2045C47.9367 22.2818 51.4554 24.8801 56.0689 24.8801C59.5094 24.8801 61.5424 23.0413 62.4808 21.5623C62.989 23.521 64.6702 24.5603 67.4461 24.6402V21.3624C66.195 21.2425 65.7258 20.6829 65.7258 19.3238ZM56.3816 21.8421C53.6448 21.8421 51.4945 20.483 51.4945 18.2045C51.4945 16.046 53.2539 14.9267 55.8734 14.9267H62.3244V16.9654C62.3244 20.2432 59.5094 21.8421 56.3816 21.8421Z" fill="white"/>
<path d="M69.8755 24.4404H73.4333V13.7675C73.4333 10.2099 75.6618 7.61162 79.0632 7.61162C82.3474 7.61162 84.4195 10.09 84.4195 13.7675V24.4404H88.0164V13.7675C88.0164 10.2099 90.245 7.61162 93.6464 7.61162C96.9305 7.61162 99.0027 10.09 99.0027 13.7675V24.4404H102.6V13.088C102.6 8.01135 99.2764 4.25386 94.3502 4.25386C90.245 4.25386 88.0555 7.13194 87.2345 9.05066C85.9834 6.13261 83.3639 4.25386 79.9234 4.25386C76.3656 4.25386 74.1761 6.73221 73.4333 8.33114V4.69357H69.8755V24.4404Z" fill="white"/>
<path d="M114.376 4.21389C108.707 4.21389 104.563 8.57098 104.563 14.567C104.563 20.3631 108.785 24.9201 114.728 24.9201C121.218 24.9201 123.72 20.483 123.994 18.8041H120.475C120.123 19.4437 118.638 21.5623 114.728 21.5623C110.936 21.5623 108.355 18.6842 108.16 15.0067H124.229C124.229 8.531 120.045 4.21389 114.376 4.21389ZM114.376 7.3318C117.269 7.3318 119.42 9.01068 120.28 11.9687H108.394C109.137 9.1306 111.288 7.3318 114.376 7.3318Z" fill="white"/>
<path d="M137.002 16.2458C139.582 16.5656 140.442 17.525 140.442 19.044C140.442 20.6029 138.839 21.8021 135.555 21.8021C131.45 21.8021 129.964 19.5237 129.73 18.9241H125.937C126.328 20.7628 128.752 25 135.555 25C141.029 25 144 22.3618 144 19.044C144 15.4464 142.006 13.3678 137.471 12.8081C135.79 12.6083 134.851 12.5283 133.327 12.3285C131.059 12.0487 130.042 11.1692 130.042 9.77018C130.042 8.33114 131.567 7.25186 134.46 7.25186C138.018 7.25186 139.543 9.05066 139.934 9.57031H143.726C143.14 7.57164 140.95 4.13394 134.46 4.13394C129.73 4.13394 126.524 6.41242 126.524 9.8901C126.524 13.4877 129.143 15.3265 132.857 15.7662C134.539 15.966 135.281 16.046 137.002 16.2458Z" fill="white"/>
</svg>
