<svg width="26" height="26" viewBox="0 0 26 26" fill="none" xmlns="http://www.w3.org/2000/svg">
<circle cx="13.0001" cy="13.0003" r="10.6893" fill="white"/>
<path d="M16.0264 14.2317C16.08 13.7898 16.1201 13.3479 16.1201 12.8926C16.1201 12.4373 16.08 11.9954 16.0264 11.5536H18.2894C18.3966 11.9821 18.4635 12.4306 18.4635 12.8926C18.4635 13.3546 18.3966 13.8032 18.2894 14.2317H16.0264ZM14.8413 17.9543C15.243 17.2111 15.551 16.4077 15.7653 15.5708H17.7404C17.0917 16.6877 16.0626 17.5338 14.8413 17.9543ZM14.6739 14.2317H11.5405C11.4736 13.7898 11.4334 13.3479 11.4334 12.8926C11.4334 12.4373 11.4736 11.9887 11.5405 11.5536H14.6739C14.7342 11.9887 14.7811 12.4373 14.7811 12.8926C14.7811 13.3479 14.7342 13.7898 14.6739 14.2317ZM13.1072 18.2221C12.5515 17.4187 12.1029 16.5282 11.8284 15.5708H14.386C14.1115 16.5282 13.6629 17.4187 13.1072 18.2221ZM10.4291 10.2145H8.47404C9.11602 9.09449 10.1444 8.24704 11.3664 7.83093C10.9647 8.57412 10.6634 9.37756 10.4291 10.2145ZM8.47404 15.5708H10.4291C10.6634 16.4077 10.9647 17.2111 11.3664 17.9543C10.147 17.5336 9.12003 16.6874 8.47404 15.5708ZM7.92502 14.2317C7.81789 13.8032 7.75094 13.3546 7.75094 12.8926C7.75094 12.4306 7.81789 11.9821 7.92502 11.5536H10.188C10.1345 11.9954 10.0943 12.4373 10.0943 12.8926C10.0943 13.3479 10.1345 13.7898 10.188 14.2317H7.92502ZM13.1072 7.55642C13.6629 8.35987 14.1115 9.25704 14.386 10.2145H11.8284C12.1029 9.25704 12.5515 8.35987 13.1072 7.55642ZM17.7404 10.2145H15.7653C15.5557 9.38523 15.2454 8.58476 14.8413 7.83093C16.0733 8.25274 17.0977 9.10305 17.7404 10.2145ZM13.1072 6.19727C9.40469 6.19727 6.41187 9.21018 6.41187 12.8926C6.41187 14.6683 7.11727 16.3713 8.37289 17.627C8.99461 18.2487 9.7327 18.7419 10.545 19.0783C11.3573 19.4148 12.228 19.588 13.1072 19.588C14.8829 19.588 16.5859 18.8826 17.8416 17.627C19.0972 16.3713 19.8026 14.6683 19.8026 12.8926C19.8026 12.0134 19.6294 11.1427 19.2929 10.3304C18.9565 9.5181 18.4633 8.78001 17.8416 8.15829C17.2198 7.53657 16.4817 7.04339 15.6694 6.70692C14.8571 6.37045 13.9865 6.19727 13.1072 6.19727Z" fill="black"/>
</svg>
