<svg width="36" height="36" viewBox="0 0 36 36" fill="none" xmlns="http://www.w3.org/2000/svg">
<circle cx="18.3433" cy="17.8099" r="14.1493" fill="#FFB703"/>
<circle cx="18.3433" cy="17.8097" r="15.4179" fill="white"/>
<path d="M28.5319 13.8275V22.9042C28.5319 23.7487 28.1965 24.5585 27.5994 25.1556C27.0023 25.7527 26.1924 26.0882 25.348 26.0882H11.3387C10.4943 26.0882 9.68444 25.7527 9.08734 25.1556C8.49023 24.5585 8.15479 23.7487 8.15479 22.9042V13.8275L18.0199 19.6324C18.1179 19.6902 18.2296 19.7207 18.3434 19.7207C18.4571 19.7207 18.5688 19.6902 18.6668 19.6324L28.5319 13.8275ZM25.348 9.53174C26.1314 9.53162 26.8874 9.82034 27.4713 10.3427C28.0552 10.865 28.426 11.5843 28.5128 12.3629L18.3434 18.3448L8.17389 12.3629C8.26069 11.5843 8.63151 10.865 9.21541 10.3427C9.7993 9.82034 10.5553 9.53162 11.3387 9.53174H25.348Z" fill="black"/>
</svg>
