<svg width="23" height="22" viewBox="0 0 23 22" fill="none" xmlns="http://www.w3.org/2000/svg">
<path d="M11.4327 0.311035C5.52972 0.311035 0.743408 5.09735 0.743408 11.0003C0.743408 16.9033 5.52972 21.6896 11.4327 21.6896C17.3356 21.6896 22.1219 16.9033 22.1219 11.0003C22.1219 5.09735 17.3356 0.311035 11.4327 0.311035ZM17.5408 6.36431L16.5673 7.29724C16.4815 7.36166 16.4409 7.46664 16.4576 7.56924V14.4338C16.4409 14.5387 16.4815 14.6437 16.5673 14.7058L17.5217 15.6387V15.8463H12.7307V15.6482L13.7161 14.6914C13.8139 14.5936 13.8139 14.565 13.8139 14.4194V8.86484L11.07 15.8224H10.7002L7.50771 8.86484V13.5295C7.47908 13.7251 7.54827 13.9232 7.68666 14.0639L8.97033 15.6172V15.8248H5.32452V15.6172L6.60819 14.0639C6.67582 13.9941 6.72616 13.9093 6.75516 13.8165C6.78416 13.7237 6.79103 13.6254 6.77521 13.5295V8.13711C6.79191 7.98679 6.73465 7.84124 6.62012 7.73865L5.47961 6.36431V6.15673H9.02282L11.7572 12.1575L14.1646 6.1615H17.5408V6.36431Z" fill="white"/>
</svg>
