<svg width="23" height="22" viewBox="0 0 23 22" fill="none" xmlns="http://www.w3.org/2000/svg">
<path d="M11.4327 0.311035C5.52908 0.311035 0.743408 5.09671 0.743408 11.0003C0.743408 16.9039 5.52908 21.6896 11.4327 21.6896C17.3363 21.6896 22.1219 16.9039 22.1219 11.0003C22.1219 5.09671 17.3363 0.311035 11.4327 0.311035ZM15.7808 9.06733C15.7852 9.15863 15.7863 9.24994 15.7863 9.33902C15.7863 12.1227 13.6696 15.3306 9.797 15.3306C8.65268 15.3325 7.53217 15.0038 6.57017 14.3841C6.73385 14.4042 6.90199 14.412 7.07235 14.412C8.05888 14.412 8.96635 14.0768 9.68676 13.5112C9.24774 13.5025 8.82235 13.3572 8.46987 13.0953C8.11739 12.8334 7.85539 12.4681 7.72038 12.0503C8.03567 12.1103 8.36046 12.0977 8.67017 12.0136C8.19366 11.9172 7.76514 11.659 7.45728 11.2828C7.14942 10.9065 6.98116 10.4353 6.98104 9.94919V9.92358C7.26498 10.0806 7.59011 10.1763 7.93528 10.1875C7.48856 9.8901 7.17232 9.43329 7.05124 8.91048C6.93016 8.38766 7.01339 7.83834 7.28391 7.37486C7.81275 8.02512 8.47226 8.55708 9.21974 8.93629C9.96722 9.31549 10.786 9.53349 11.6231 9.57618C11.5167 9.12446 11.5625 8.65023 11.7534 8.22722C11.9443 7.80422 12.2696 7.45613 12.6787 7.23708C13.0879 7.01804 13.5579 6.9403 14.0158 7.01596C14.4737 7.09162 14.8937 7.31643 15.2107 7.65545C15.6819 7.56223 16.1337 7.3894 16.5468 7.14437C16.3898 7.63222 16.061 8.04648 15.6215 8.31017C16.0389 8.2599 16.4465 8.14769 16.8308 7.97725C16.5485 8.40024 16.1929 8.76941 15.7808 9.06733Z" fill="white"/>
</svg>
